<svg width="549" height="699" viewBox="0 0 549 699" fill="none" xmlns="http://www.w3.org/2000/svg">
<path d="M40.3766 427.487V185.869C40.3766 176.449 49.0036 169.389 58.237 171.251L334.613 226.971C342.732 228.609 348.572 235.743 348.572 244.026V598.522C348.572 652.225 391.219 696.219 444.894 697.892L466.018 698.551C510.893 699.948 548.029 663.951 548.029 619.054V616.981C548.029 579.446 522.171 546.855 485.617 538.32L410.424 520.765C397.489 517.746 388.339 506.216 388.339 492.933V98.1916C388.339 84.0124 378.356 71.7933 364.462 68.9656L31.9111 1.28341C15.7383 -2.0082 0.609375 10.3517 0.609375 26.8562V525.304C0.609375 578.552 41.9722 622.641 95.1136 626.038L116.764 627.42C160.12 630.191 197.594 597.468 200.688 554.135C203.887 512.906 175.997 475.707 135.524 467.217L59.7308 451.32C48.4518 448.956 40.3766 439.01 40.3766 427.487Z" fill="url(#paint0_linear_22_3)"/>
<defs>
<linearGradient id="paint0_linear_22_3" x1="274.319" y1="-5.0873" x2="274.319" y2="701.103" gradientUnits="userSpaceOnUse">
<stop stop-color="#E96777"/>
<stop offset="1" stop-color="#E63E45"/>
</linearGradient>
</defs>
</svg>
